<?xml version="1.0" standalone="no"?>
<!DOCTYPE svg PUBLIC "-//W3C//DTD SVG 20010904//EN"
 "http://www.w3.org/TR/2001/REC-SVG-20010904/DTD/svg10.dtd">
<svg version="1.0" xmlns="http://www.w3.org/2000/svg"
 width="42.000000pt" height="42.000000pt" viewBox="0 0 42.000000 42.000000"
 preserveAspectRatio="xMidYMid meet">

<g transform="translate(0.000000,42.000000) scale(0.100000,-0.100000)"
fill="#000000" stroke="none">
<path d="M0 394 c0 -29 16 -48 45 -55 16 -4 24 4 41 38 l21 43 -53 0 c-51 0
-54 -1 -54 -26z"/>
<path d="M215 408 c-48 -17 -135 -76 -135 -92 0 -8 -16 -30 -35 -49 -25 -25
-35 -44 -35 -67 0 -30 2 -32 27 -27 l27 5 -25 -19 c-14 -11 -18 -19 -10 -19
11 0 10 -5 -4 -20 -10 -11 -20 -42 -23 -70 l-5 -50 32 0 c29 0 31 2 31 39 0
52 18 99 41 106 46 15 71 -15 84 -102 6 -37 10 -43 31 -43 22 0 24 4 24 46 0
25 5 54 10 64 13 24 1 32 -45 32 -19 0 -39 6 -46 14 -17 21 -3 59 27 73 23 10
26 10 20 -4 -3 -9 -2 -13 4 -10 6 3 10 12 10 20 0 21 68 14 74 -7 2 -10 0 -18
-5 -18 -5 0 -11 -11 -15 -25 -7 -29 -19 -32 -32 -9 -7 12 -11 13 -17 5 -4 -8
4 -16 24 -24 29 -11 31 -15 31 -62 0 -84 7 -95 51 -95 l39 0 -23 38 c-35 54
-40 105 -16 136 22 27 37 29 55 7 9 -11 11 -11 11 3 0 9 -4 16 -9 16 -4 0 -8
7 -8 15 0 8 -9 15 -20 15 -11 0 -20 5 -20 11 0 7 11 9 30 6 25 -5 30 -3 30 13
0 10 5 22 10 25 6 3 10 15 10 27 0 19 -1 20 -25 4 -36 -24 -37 -20 -4 17 20
21 29 40 27 57 -3 23 -7 25 -58 27 -30 1 -59 -2 -65 -6 -5 -5 -23 -11 -40 -14
l-30 -6 30 14 c23 11 25 14 10 14 -11 0 -33 -5 -50 -11z m-46 -51 c-78 -47
-87 -51 -59 -28 28 24 90 60 104 61 6 0 -15 -15 -45 -33z m201 -147 c0 -5 -2
-10 -4 -10 -3 0 -8 5 -11 10 -3 6 -1 10 4 10 6 0 11 -4 11 -10z"/>
<path d="M326 154 c-4 -9 -4 -19 -1 -22 2 -3 7 3 11 12 4 9 4 19 1 22 -2 3 -7
-3 -11 -12z"/>
</g>
</svg>
